<svg xmlns="http://www.w3.org/2000/svg" viewBox="0 0 1451.41 463.07"><defs><style>.cls-1{fill:#34ffff;}.cls-2{fill:#f15bb5;}</style></defs><g id="Layer_2" data-name="Layer 2"><g id="Layer_1-2" data-name="Layer 1"><path class="cls-1" d="M440.75,7.39c-89.64,39.49-192.46,50-316,65.46-17.52,3.74-33.28,7.48-43.79,9.35C54.66,87.81,28.39,95.29,9.12,112.13c-5.26,3.74-7,9.35-8.76,15-3.5,15,19.27,28,35,28,3.51-1.87,8.76-3.74,12.27-7.48s7-9.35,10.51-15c1.75-3.74,7-11.22,10.51-16.83A110.18,110.18,0,0,1,89.69,99c7-5.61,17.52-9.35,33.29-13.09,125.5-14.69,252-6.48,304.08-40.79C427.76,37.31,441.25,15.34,440.75,7.39Z"/><path class="cls-1" d="M1449,140.18a57.32,57.32,0,0,0-7-15c-3.5-1.87-7-5.61-12.26-7.48-3.5-1.87-10.51-1.87-17.51,1.87-5.26,1.87-10.51,3.74-17.52,9.35-5.25,3.74-12.26,9.35-21,13.09s-19.27,5.61-29.78,7.48c-12.26,0-24.52,0-40.29-5.61C1192.94,109,1024.91,93.86,977.47,96.69c5,11.21,4.78,21.18,8.76,32.68,62.74-11.58,264.62,13.15,306.84,27.64,19.27,7.49,35,13.1,49,15,12.26,3.74,22.77,7.48,31.53,7.48,10.51,1.87,17.52,3.74,24.52,3.74,10.51,0,21-1.87,29.78-3.74s14-7.48,19.27-13.09S1452.47,153.27,1449,140.18Z"/><path class="cls-1" d="M421.41,165.71q-5.9-15.17-5.88-48.54a308.63,308.63,0,0,1,14-93.66q3.4-11,11.19-16.12t21.8-5.12q7.57,0,10.62,1.9t3,7.21q0,6.06-5.69,27.3Q466.72,53.85,464.44,65a264.52,264.52,0,0,0-3.79,27.87q10.25-29.58,24.46-50.05t29.2-30.53q15-10,28.25-10t18.77,6.07q5.49,6.08,5.5,18.58,0,12.15-7.21,44-3,13.65-4.17,20.48,19-46.65,42.09-67.88T640.77,2.27q24.65,0,24.65,24.65,0,14.79-8.34,53.47-7.22,33-7.21,43.61,0,15.17,11,15.16,7.57,0,18-9.29t27.87-30.14c3-3.54,3.66-13.14,5.93-10.11,6.43,8.57.71,13.59,2.19,15.5,2.2,2.83-1.72,11.14-1.72,16.44,0,10.12,1.35,7.91-3.44,13.47-10.88,13.4-11.87,24.36-24.38,32.95s-26.74,12.9-42.66,12.9q-19.35,0-29.2-11.19t-9.86-32.42q0-10.62,5.31-37.92,4.92-23.89,4.93-33c0-4-1.4-6.07-4.17-6.07q-4.93,0-14,12.7t-18.21,33.56a273.13,273.13,0,0,0-14.78,44q-4.18,18.19-9.67,24.27t-17.64,6.07q-12.51,0-18.77-11.95t-6.25-29q0-14.4,3.79-41.71,3-24.25,3-31.85c0-4-1.39-6.07-4.17-6.07q-5.69,0-14.41,13.65T481.7,108.83a334,334,0,0,0-13.08,41.71q-4.19,17.84-9.67,24.08t-17.26,6.26Q427.28,180.88,421.41,165.71Z"/><path class="cls-1" d="M859.56,111.23c.1,4.73,5.17,12.86,5.17,18.16,0,10.12,6.28,9.8,4.95,5.6a167.69,167.69,0,0,1-35.07,33q-18.78,12.9-42.66,12.9-20.1,0-32.61-14.41-21.62,14-45.13,14.41-4.94,73.17-22.37,122.29t-51.19,49.1q-20.48,0-30.34-14.79t-9.86-41q0-37.17,17.07-86.65t52.71-109q0-55.37-.76-77-.39-11,8.72-17.44T700.94,0q8,0,11.57,3.22t4,12.71q0,9.48.38,14Q729,14.8,740.76,8.15a50.11,50.11,0,0,1,25-6.63q21.24,0,34.7,17.06t13.46,44.74a120.68,120.68,0,0,1-6.44,39.06,127.57,127.57,0,0,1-17.83,34.51,50,50,0,0,0,13.27,2.27q12.52,0,23.89-9.1T856,99.73c3-3.54,2.31-15.14,3.39-11.51C860,90.33,859.49,107.65,859.56,111.23ZM660.75,270.55q6.82-44.55,8.72-110.91a558.94,558.94,0,0,0-25.79,72.43q-9.46,34.5-9.48,58,0,12.14,2.85,18.58c1.89,4.3,4.11,6.45,6.63,6.45Q653.92,315.11,660.75,270.55Zm80.58-141.06a87.21,87.21,0,0,0,18.39-29.57,101.55,101.55,0,0,0,6.82-37q0-11.39-4.55-17.26a14.58,14.58,0,0,0-12.13-5.87q-13.65,0-33,28.81-.39,16.7-.38,48.92,0,17.45-.38,26.92Q729.76,141.44,741.33,129.49Z"/><path class="cls-1" d="M833.27,162.07q-20.67-21-20.66-55.55,0-30.7,12.13-53.84T856.21,17Q875.56,4.52,896.79,4.52q20.85,0,32.42,12.32t11.56,31.67q0,15.92-7,26.92t-18.39,11q-7.22,0-11.57-3.42a11.34,11.34,0,0,1-4.36-9.48,28,28,0,0,1,.76-6.06q.75-3.42,1.14-4.93a33.82,33.82,0,0,0,1.89-10.62q0-4.92-2.46-7.59a9.14,9.14,0,0,0-7-2.65q-8.71,0-16.3,7.77t-12.14,21a89.64,89.64,0,0,0-4.55,29.2q0,44,38.3,44,15.56,0,33.56-10.42T968.08,102c3-3.53,6.44-5.31,10.24-5.31a8.78,8.78,0,0,1,7.77,4.55q2.83,4.56,2.84,12.52,0,14.42-7.2,23.51a123.12,123.12,0,0,1-42.66,33.93q-24.84,12-48,12Q853.93,183.12,833.27,162.07Z"/><path class="cls-2" d="M421.08,383.65a6,6,0,0,1,2.6.66,5,5,0,0,1,2.07,1.72l21.42,33-4.4-.17,22-32.79a5.05,5.05,0,0,1,4.31-2.38,5.5,5.5,0,0,1,3.79,1.5A5,5,0,0,1,474.5,389v51a5.21,5.21,0,0,1-5.47,5.38,5.43,5.43,0,0,1-4-1.54,5.21,5.21,0,0,1-1.54-3.84V398.54l3.44.8-18,27.41a7.31,7.31,0,0,1-2,1.68,4.08,4.08,0,0,1-2.42.61,3.94,3.94,0,0,1-2.34-.61,7.41,7.41,0,0,1-2-1.68l-16.84-26.62,2.3-4.67v44.6a5.53,5.53,0,0,1-1.41,3.84,4.8,4.8,0,0,1-3.71,1.54,4.66,4.66,0,0,1-3.61-1.54,5.48,5.48,0,0,1-1.41-3.84V389a5.11,5.11,0,0,1,1.63-3.79A5.44,5.44,0,0,1,421.08,383.65Z"/><path class="cls-2" d="M521.83,398.28a5.09,5.09,0,0,1,3.79,1.54,5.3,5.3,0,0,1,1.5,3.84v37.46q0,8.11-3,12.91a17.24,17.24,0,0,1-8.15,6.92,29.73,29.73,0,0,1-11.46,2.12,44.41,44.41,0,0,1-6-.44,21,21,0,0,1-5.2-1.32,7.5,7.5,0,0,1-3.65-2.87,4.31,4.31,0,0,1-.4-3.66,5.53,5.53,0,0,1,2.56-3.48,4.38,4.38,0,0,1,3.7-.22c.94.29,2.17.75,3.7,1.37a14.19,14.19,0,0,0,5.29.92,18,18,0,0,0,6.74-1.1,7.8,7.8,0,0,0,4.06-3.7,15.43,15.43,0,0,0,1.36-7.1v-5.9l1.85,2.11a14.65,14.65,0,0,1-9.07,7.67,23.45,23.45,0,0,1-7.06,1,15.14,15.14,0,0,1-8.15-2.16,14.7,14.7,0,0,1-5.42-6,19.22,19.22,0,0,1-1.94-8.77V403.66a5.3,5.3,0,0,1,1.5-3.84,5.43,5.43,0,0,1,7.58,0,5.3,5.3,0,0,1,1.5,3.84v22.56c0,3.82.83,6.51,2.51,8.07a9.88,9.88,0,0,0,7,2.33,10.42,10.42,0,0,0,5.2-1.19,7.86,7.86,0,0,0,3.26-3.52,12.88,12.88,0,0,0,1.15-5.69V403.66a5.29,5.29,0,0,1,1.49-3.84A5.1,5.1,0,0,1,521.83,398.28Z"/><path class="cls-2" d="M589.62,383.74a15.34,15.34,0,0,1,8.59,2.64,19.62,19.62,0,0,1,6.48,7.14,21.5,21.5,0,0,1,0,20,20,20,0,0,1-6.48,7.18,15.09,15.09,0,0,1-8.59,2.69H573.4l.88-1.58v18.24a5.48,5.48,0,0,1-1.41,3.84,4.76,4.76,0,0,1-3.7,1.54,4.68,4.68,0,0,1-3.62-1.54,5.48,5.48,0,0,1-1.41-3.84V389.11a5.28,5.28,0,0,1,5.38-5.37Zm0,29.61a4.91,4.91,0,0,0,3.26-1.41,11.22,11.22,0,0,0,2.65-3.66,11.2,11.2,0,0,0,0-9.47,10.82,10.82,0,0,0-2.65-3.57,5,5,0,0,0-3.26-1.37h-16.4l1.06-1.58v22.47l-1-1.41Z"/><path class="cls-2" d="M622.85,383.65a6,6,0,0,1,2.6.66,5,5,0,0,1,2.07,1.72l21.42,33-4.4-.17L666.48,386a5.08,5.08,0,0,1,4.32-2.38,5.52,5.52,0,0,1,3.79,1.5,5,5,0,0,1,1.68,3.87v51a5.21,5.21,0,0,1-5.47,5.38,5.43,5.43,0,0,1-4-1.54,5.21,5.21,0,0,1-1.54-3.84V398.54l3.44.8-18,27.41a7.31,7.31,0,0,1-2,1.68,4.08,4.08,0,0,1-2.42.61,3.94,3.94,0,0,1-2.34-.61,7.41,7.41,0,0,1-2-1.68l-16.84-26.62,2.29-4.67v44.6A5.48,5.48,0,0,1,626,443.9a4.76,4.76,0,0,1-3.7,1.54,4.66,4.66,0,0,1-3.61-1.54,5.48,5.48,0,0,1-1.41-3.84V389a5.11,5.11,0,0,1,1.63-3.79A5.44,5.44,0,0,1,622.85,383.65Z"/><path class="cls-2" d="M700.51,440.06a5,5,0,0,1-1.68,3.84,5.53,5.53,0,0,1-3.87,1.54,5.21,5.21,0,0,1-5.47-5.38V389.11a5.13,5.13,0,0,1,1.59-3.83,5.55,5.55,0,0,1,4-1.54,5.3,5.3,0,0,1,3.75,1.54,5.09,5.09,0,0,1,1.63,3.83Z"/><path class="cls-2" d="M781.6,386.73a4.68,4.68,0,0,1,2.69,3.62,5.39,5.39,0,0,1-1.28,4.49,4,4,0,0,1-3,1.77,6.94,6.94,0,0,1-3.66-.71,22.18,22.18,0,0,0-9.34-2,22.77,22.77,0,0,0-8.51,1.5,18,18,0,0,0-6.39,4.28,18.53,18.53,0,0,0-4,6.56,24.59,24.59,0,0,0-1.36,8.38,25.67,25.67,0,0,0,1.54,9.34,18.2,18.2,0,0,0,4.27,6.61,17.2,17.2,0,0,0,6.44,3.92,24.22,24.22,0,0,0,8,1.28,25.55,25.55,0,0,0,4.76-.44,16.27,16.27,0,0,0,4.58-1.58,6.24,6.24,0,0,1,3.66-.62,4.56,4.56,0,0,1,3,1.85,5.32,5.32,0,0,1,1.28,4.54,4.62,4.62,0,0,1-2.69,3.39,30.72,30.72,0,0,1-4.71,1.9,35.12,35.12,0,0,1-4.9,1.14,30.91,30.91,0,0,1-5,.4,35.59,35.59,0,0,1-12-2,30.55,30.55,0,0,1-10.14-6,27.79,27.79,0,0,1-7-9.92,34.73,34.73,0,0,1-2.55-13.79,32.79,32.79,0,0,1,2.33-12.52,29.2,29.2,0,0,1,6.61-9.92,30.55,30.55,0,0,1,10.1-6.52,33.67,33.67,0,0,1,12.69-2.34,32.54,32.54,0,0,1,7.58.89A30.59,30.59,0,0,1,781.6,386.73Z"/><path class="cls-2" d="M838.11,421.9a24.84,24.84,0,0,1-3.22,12.74,23.15,23.15,0,0,1-8.64,8.6,25.39,25.39,0,0,1-24.24,0,23.22,23.22,0,0,1-8.64-8.6,26.79,26.79,0,0,1,0-25.47,23.4,23.4,0,0,1,8.64-8.64,25,25,0,0,1,24.24,0,23.33,23.33,0,0,1,8.64,8.64A24.83,24.83,0,0,1,838.11,421.9Zm-10.58,0a16,16,0,0,0-1.81-7.8,13.38,13.38,0,0,0-4.85-5.15,13.14,13.14,0,0,0-13.48,0,13.38,13.38,0,0,0-4.85,5.15,16,16,0,0,0-1.81,7.8,15.81,15.81,0,0,0,1.81,7.72,13.38,13.38,0,0,0,4.85,5.15,13.2,13.2,0,0,0,13.48,0,13.38,13.38,0,0,0,4.85-5.15A15.81,15.81,0,0,0,827.53,421.9Z"/><path class="cls-2" d="M848.6,398.28a5.92,5.92,0,0,1,3.08.84,5.13,5.13,0,0,1,2.12,2.51l13,29.62-1.94.88L878,401.72q1.5-3.53,4.67-3.35a4.82,4.82,0,0,1,3.57,1.36,4.66,4.66,0,0,1,1.15,4.72,13.49,13.49,0,0,1-.49,1.32l-16.48,36.32a5.05,5.05,0,0,1-4.5,3.35,4.75,4.75,0,0,1-3.21-.62,5.51,5.51,0,0,1-2.34-2.73L844,405.77c-.11-.29-.25-.67-.39-1.14a5.57,5.57,0,0,1-.22-1.68,4.66,4.66,0,0,1,1.41-3.13A4.91,4.91,0,0,1,848.6,398.28Z"/><path class="cls-2" d="M917.35,446.32a25.85,25.85,0,0,1-13-3.13,21.57,21.57,0,0,1-8.46-8.51,24.79,24.79,0,0,1-2.95-12.16A26.77,26.77,0,0,1,896.15,409a22.72,22.72,0,0,1,8.42-8.59,21.72,21.72,0,0,1,11-3,20.15,20.15,0,0,1,8.51,1.85,23,23,0,0,1,7.09,5.07,24.66,24.66,0,0,1,4.9,7.45,22.7,22.7,0,0,1,1.8,9,4.54,4.54,0,0,1-1.67,3.44,5.61,5.61,0,0,1-3.7,1.32H898.84l-2.64-8.82h32.35l-1.94,1.77v-2.38a8,8,0,0,0-1.81-4.59,12,12,0,0,0-4-3.22,11.63,11.63,0,0,0-5.16-1.19,16.76,16.76,0,0,0-4.94.71,9.4,9.4,0,0,0-4,2.38,11.61,11.61,0,0,0-2.65,4.5,22.46,22.46,0,0,0-1,7.14,15.41,15.41,0,0,0,2,8.06,13.5,13.5,0,0,0,11.76,6.74,20.75,20.75,0,0,0,5.21-.52,11.83,11.83,0,0,0,3.12-1.28c.8-.5,1.52-.93,2.16-1.28a6.72,6.72,0,0,1,3-.79,4.44,4.44,0,0,1,4.5,4.4,5.51,5.51,0,0,1-2.47,4.32,20.28,20.28,0,0,1-6.44,3.4A25.6,25.6,0,0,1,917.35,446.32Z"/><path class="cls-2" d="M952,445.44a5.07,5.07,0,0,1-3.8-1.54,5.29,5.29,0,0,1-1.49-3.84v-36.4a5.29,5.29,0,0,1,1.49-3.84,5.45,5.45,0,0,1,7.59,0,5.33,5.33,0,0,1,1.49,3.84v8.28l-.61-5.9a13.61,13.61,0,0,1,2.51-3.75,14.78,14.78,0,0,1,3.48-2.73,15.47,15.47,0,0,1,4.14-1.63,18.47,18.47,0,0,1,4.41-.53,6.73,6.73,0,0,1,4.45,1.5,4.45,4.45,0,0,1,1.81,3.52,5.23,5.23,0,0,1-1.5,4.19,5,5,0,0,1-3.26,1.28,7.31,7.31,0,0,1-3-.62,7.57,7.57,0,0,0-3.13-.62,7.67,7.67,0,0,0-3.22.75,8.8,8.8,0,0,0-3,2.34,12.26,12.26,0,0,0-2.21,3.92,16.33,16.33,0,0,0-.84,5.51v20.89a5.33,5.33,0,0,1-1.49,3.84A5.07,5.07,0,0,1,952,445.44Z"/></g></g></svg>