<svg xmlns="http://www.w3.org/2000/svg" xmlns:xlink="http://www.w3.org/1999/xlink" viewBox="0 0 453.17 178.23"><defs><style>.cls-1{fill:url(#Nuovo_campione_sfumatura_2);}.cls-2{fill:url(#Nuovo_campione_sfumatura_2-2);}.cls-3{clip-path:url(#clip-path);}.cls-4{fill:url(#Nuovo_campione_sfumatura_2-4);}.cls-5{clip-path:url(#clip-path-2);}.cls-6{fill:url(#Nuovo_campione_sfumatura_2-6);}.cls-7{fill:#48b988;}.cls-8{fill:#286046;}</style><linearGradient id="Nuovo_campione_sfumatura_2" x1="28.23" y1="108.94" x2="111.25" y2="108.94" gradientUnits="userSpaceOnUse"><stop offset="0" stop-color="#286046"/><stop offset="1" stop-color="#48b988"/></linearGradient><linearGradient id="Nuovo_campione_sfumatura_2-2" x1="28.23" y1="69.71" x2="111.25" y2="69.71" xlink:href="#Nuovo_campione_sfumatura_2"/><clipPath id="clip-path"><polygon class="cls-1" points="72.3 102.62 69.74 104.09 69.72 104.08 69.69 104.09 69.66 104.05 56.96 96.71 56.96 85.33 28.23 101.61 28.23 113.3 69.74 137.26 111.25 113.3 111.25 80.61 72.3 102.62"/></clipPath><linearGradient id="Nuovo_campione_sfumatura_2-4" x1="-1188.18" y1="1190.27" x2="-1186.66" y2="1190.27" gradientTransform="matrix(55.57, 0, 0, -55.57, 66086.09, 66253.16)" xlink:href="#Nuovo_campione_sfumatura_2"/><clipPath id="clip-path-2"><polygon class="cls-2" points="28.23 65.36 28.23 98.02 69.74 74.58 82.52 81.96 82.52 93.3 111.25 77.02 111.25 65.36 69.74 41.4 28.23 65.36"/></clipPath><linearGradient id="Nuovo_campione_sfumatura_2-6" x1="-1239.61" y1="1187.56" x2="-1238.09" y2="1187.56" gradientTransform="matrix(-45.05, 0, 0, 45.05, -55754.3, -53429.07)" xlink:href="#Nuovo_campione_sfumatura_2"/></defs><title>Risorsa 1</title><g id="Livello_2" data-name="Livello 2"><g id="Livello_1-2" data-name="Livello 1"><polygon class="cls-1" points="72.3 102.62 69.74 104.09 69.72 104.08 69.69 104.09 69.66 104.05 56.96 96.71 56.96 85.33 28.23 101.61 28.23 113.3 69.74 137.26 111.25 113.3 111.25 80.61 72.3 102.62"/><g class="cls-3"><rect class="cls-4" x="19.77" y="60.46" width="99.95" height="96.94" transform="translate(-53.96 71.13) rotate(-40.38)"/></g><polygon class="cls-2" points="28.23 65.36 28.23 98.02 69.74 74.58 82.52 81.96 82.52 93.3 111.25 77.02 111.25 65.36 69.74 41.4 28.23 65.36"/><g class="cls-5"><rect class="cls-6" x="20.06" y="20.71" width="99.36" height="97.99" transform="matrix(0.73, -0.68, 0.68, 0.73, -28.8, 66.12)"/></g><path class="cls-7" d="M139.76,119.81a2,2,0,0,1,2,2,1.93,1.93,0,0,1-.59,1.41,1.88,1.88,0,0,1-1.4.58,1.9,1.9,0,0,1-1.41-.58,1.93,1.93,0,0,1-.59-1.41,2,2,0,0,1,2-2Z"/><path class="cls-7" d="M158.66,112.41,155.77,114a4.87,4.87,0,0,0-1.61-1.18,4.79,4.79,0,0,0-1.86-.33,4.35,4.35,0,0,0-3.14,1.16,4,4,0,0,0-1.2,3,3.8,3.8,0,0,0,1.15,2.87,4.18,4.18,0,0,0,3,1.12,4.4,4.4,0,0,0,3.62-1.59l2.74,1.87a8.42,8.42,0,0,1-12,.73,7.18,7.18,0,0,1,1.74-11.4,8.34,8.34,0,0,1,4-1,8.09,8.09,0,0,1,3.7.82A7,7,0,0,1,158.66,112.41Z"/><path class="cls-7" d="M168.27,109.26a7.34,7.34,0,0,1,3.67,1,7.06,7.06,0,0,1,2.69,2.65,7.33,7.33,0,0,1,0,7.27,7,7,0,0,1-2.65,2.66,7.28,7.28,0,0,1-3.69,1,6.88,6.88,0,0,1-5.07-2.11,7.27,7.27,0,0,1,5.06-12.41Zm0,3.26a3.59,3.59,0,0,0-2.69,1.13,4,4,0,0,0-1.07,2.87,4,4,0,0,0,1.06,2.92,3.55,3.55,0,0,0,2.69,1.12,3.6,3.6,0,0,0,2.71-1.13,4.47,4.47,0,0,0,0-5.8A3.6,3.6,0,0,0,168.32,112.52Z"/><path class="cls-7" d="M180.31,119.81a1.92,1.92,0,0,1,1.41.58,1.89,1.89,0,0,1,.59,1.4,2,2,0,0,1-3.41,1.41,2,2,0,0,1-.58-1.41,2,2,0,0,1,2-2Z"/><path class="cls-7" d="M185.68,109.61h3.51v6.66a9.53,9.53,0,0,0,.26,2.69,2.38,2.38,0,0,0,.86,1.18,2.47,2.47,0,0,0,1.46.42,2.57,2.57,0,0,0,1.47-.41,2.48,2.48,0,0,0,.9-1.22,9.58,9.58,0,0,0,.21-2.55v-6.77h3.47v5.86a14.39,14.39,0,0,1-.57,5,5.41,5.41,0,0,1-2.06,2.49,6.26,6.26,0,0,1-3.45.87,6.19,6.19,0,0,1-3.68-1,5.39,5.39,0,0,1-2-2.83,17.2,17.2,0,0,1-.41-4.57Z"/><path class="cls-7" d="M201.32,104.28h3.47v11l5.1-5.7h4.35l-6,6.62,6.67,7.2h-4.31l-5.86-6.37v6.37h-3.47Z"/><path class="cls-8" d="M161.64,62.45l-6,6q-3.67-3.65-6.67-3.64a4.13,4.13,0,0,0-2.57.7,2.06,2.06,0,0,0-.34,3.17,10.82,10.82,0,0,0,2.91,1.81l3.57,1.78q5.64,2.79,7.74,5.68a11.82,11.82,0,0,1-1.69,15.42q-3.81,3.46-10.19,3.46a16.19,16.19,0,0,1-13.57-6.64l6-6.53a13.89,13.89,0,0,0,4,3.23,8.92,8.92,0,0,0,4.09,1.23,4.88,4.88,0,0,0,3.11-.93,2.68,2.68,0,0,0,1.17-2.14q0-2.25-4.24-4.39l-3.29-1.64q-9.42-4.76-9.42-11.89a10.31,10.31,0,0,1,3.55-7.87A12.9,12.9,0,0,1,148.86,56a15.76,15.76,0,0,1,12.78,6.43Z"/><path class="cls-8" d="M198.69,57h9.75V95.86h-9.75v-4.1A19.15,19.15,0,0,1,193,95.67a16.14,16.14,0,0,1-6.22,1.19,17.29,17.29,0,0,1-13-5.83,20.37,20.37,0,0,1-5.49-14.52q0-9,5.31-14.74A17,17,0,0,1,186.46,56,16.39,16.39,0,0,1,193,57.34a17.66,17.66,0,0,1,5.67,4Zm-10.24,8a9.83,9.83,0,0,0-7.51,3.19,11.53,11.53,0,0,0-3,8.2,11.64,11.64,0,0,0,3,8.28,9.85,9.85,0,0,0,7.49,3.25,10.06,10.06,0,0,0,7.62-3.2,11.7,11.7,0,0,0,3-8.37,11.36,11.36,0,0,0-3-8.21A10.19,10.19,0,0,0,188.45,65Z"/><path class="cls-8" d="M214.13,57h9.93l9.82,22.92L243.67,57h9.88L237,95.86H230.7Z"/><path class="cls-8" d="M298.15,79.26h-31.3a10.43,10.43,0,0,0,3.62,6.59A11.37,11.37,0,0,0,278,88.3a13,13,0,0,0,9.39-3.82l8.21,3.85a19.29,19.29,0,0,1-7.35,6.44,22.91,22.91,0,0,1-10.17,2.09q-9.15,0-14.89-5.76a19.64,19.64,0,0,1-5.75-14.44,20.26,20.26,0,0,1,5.73-14.76A19.23,19.23,0,0,1,277.52,56q9.18,0,14.92,5.88t5.75,15.51Zm-9.74-7.67a9.85,9.85,0,0,0-3.81-5.29,11.11,11.11,0,0,0-6.6-2,11.67,11.67,0,0,0-7.15,2.28,12.78,12.78,0,0,0-3.58,5Z"/><path class="cls-7" d="M301.74,57h9.54l7.81,22.1L327.5,57h5.83l8.25,21.85L349.4,57H359L344.83,95.86h-6.17l-8.29-22.13-8.53,22.13h-6.1Z"/><path class="cls-7" d="M368.32,41a6,6,0,0,1,4.4,1.85,6.18,6.18,0,0,1,1.83,4.5,6.11,6.11,0,0,1-1.81,4.45,5.91,5.91,0,0,1-4.34,1.84A6,6,0,0,1,364,51.79a6.28,6.28,0,0,1-1.83-4.55A6,6,0,0,1,364,42.85,5.91,5.91,0,0,1,368.32,41Zm-4.87,16h9.75V95.86h-9.75Z"/><path class="cls-7" d="M405.83,62.45l-6,6q-3.68-3.65-6.67-3.64a4.15,4.15,0,0,0-2.57.7,2.08,2.08,0,0,0-.93,1.73,2.13,2.13,0,0,0,.59,1.44,10.82,10.82,0,0,0,2.91,1.81l3.57,1.78q5.64,2.79,7.75,5.68a11.84,11.84,0,0,1-1.7,15.42q-3.81,3.46-10.19,3.46A16.19,16.19,0,0,1,379,90.22l6-6.53a13.89,13.89,0,0,0,4,3.23,8.92,8.92,0,0,0,4.09,1.23,4.88,4.88,0,0,0,3.11-.93,2.69,2.69,0,0,0,1.18-2.14q0-2.25-4.25-4.39l-3.29-1.64q-9.42-4.76-9.42-11.89A10.31,10.31,0,0,1,384,59.29,12.9,12.9,0,0,1,393.05,56a15.76,15.76,0,0,1,12.78,6.43Z"/><path class="cls-7" d="M453.13,79.26H421.82a10.4,10.4,0,0,0,3.63,6.59A11.35,11.35,0,0,0,433,88.3a13,13,0,0,0,9.39-3.82l8.21,3.85a19.44,19.44,0,0,1-7.35,6.44A22.92,22.92,0,0,1,433,96.86q-9.13,0-14.89-5.76a19.64,19.64,0,0,1-5.74-14.44,20.26,20.26,0,0,1,5.73-14.76A19.23,19.23,0,0,1,432.5,56q9.17,0,14.92,5.88t5.75,15.51Zm-9.75-7.67a9.78,9.78,0,0,0-3.8-5.29,11.11,11.11,0,0,0-6.6-2,11.67,11.67,0,0,0-7.15,2.28,12.78,12.78,0,0,0-3.58,5Z"/></g></g></svg>